<svg xmlns="http://www.w3.org/2000/svg" width="134" height="100" fill="none" xmlns:v="https://vecta.io/nano"><g clip-path="url(#A)"><path d="M9.091 100h21.212V48.485L0 25.758v65.152A9.09 9.09 0 0 0 9.091 100z" fill="#4285f4"/><path d="M103.03 100h21.212a9.09 9.09 0 0 0 9.091-9.091V25.758L103.03 48.485" fill="#34a853"/><path d="M103.03 9.091v39.394l30.303-22.727V13.636c0-11.242-12.833-17.652-21.818-10.909" fill="#fbbc04"/><path d="M30.303 48.485V9.091l36.364 27.273L103.03 9.091v39.394L66.667 75.758" fill="#ea4335"/><path d="M0 13.636v12.121l30.303 22.727V9.091l-8.485-6.364C12.818-4.015 0 2.394 0 13.636" fill="#c5221f"/></g><defs><clipPath id="A"><path fill="#fff" d="M0 0h133.333v100H0z"/></clipPath></defs></svg>