<svg xmlns="http://www.w3.org/2000/svg" height="72" width="72" fill-rule="evenodd" xmlns:v="https://vecta.io/nano"><path d="M8 72h56a8 8 0 0 0 8-8V8a8 8 0 0 0-8-8H8a8 8 0 0 0-8 8v56a8 8 0 0 0 8 8z" fill="#007ebb"/><path d="M62 62H51.316V43.802c0-4.989-1.896-7.778-5.845-7.778-4.296 0-6.541 2.902-6.541 7.778V62H28.633V27.333H38.93v4.67s3.096-5.729 10.452-5.729S62 30.764 62 40.051V62zM16.349 22.794c-3.507 0-6.349-2.864-6.349-6.397S12.842 10 16.349 10s6.348 2.864 6.348 6.397-2.84 6.397-6.348 6.397zM11.033 62h10.737V27.333H11.033V62z" fill="#fff"/></svg>