<svg fill-rule="evenodd" viewBox="0 0 72 72" height="20" width="20" xmlns="http://www.w3.org/2000/svg"><path d="m8 72h56a8 8 0 0 0 8-8v-56a8 8 0 0 0 -8-8h-56a8 8 0 0 0 -8 8v56a8 8 0 0 0 8 8z" fill="#007ebb"/><path d="m62 62h-10.684v-18.198c0-4.989-1.896-7.778-5.845-7.778-4.296 0-6.541 2.902-6.541 7.778v18.198h-10.297v-34.667h10.297v4.67s3.096-5.729 10.452-5.729 12.618 4.49 12.618 13.777zm-45.651-39.206c-3.507 0-6.349-2.864-6.349-6.397s2.842-6.397 6.349-6.397 6.348 2.864 6.348 6.397-2.84 6.397-6.348 6.397zm-5.316 39.206h10.737v-34.667h-10.737z" fill="#fff"/></svg>